<svg width="20" height="20" viewBox="0 0 20 20" fill="none" xmlns="http://www.w3.org/2000/svg">
  <path d="M19.6 10.227c0-.709-.064-1.39-.182-2.045H10v3.868h5.382c-.231 1.136-1.14 2.1-2.432 2.75v2.432h3.932c2.3-2.118 3.818-5.232 3.818-9.005z" fill="#4285F4"/>
  <path d="M10 20c3.282 0 6.036-1.09 8.05-2.977l-3.932-2.432c-1.09.727-2.482 1.159-4.118 1.159-3.168 0-5.85-2.14-6.809-5.014H1.127v2.505C3.1 17.727 6.3 20 10 20z" fill="#34A853"/>
  <path d="M3.191 11.364c-.227-.682-.364-1.409-.364-2.182s.137-1.5.364-2.182V4.395H1.127C.409 5.66 0 7.08 0 8.636s.409 2.977 1.127 4.241l2.064-1.513z" fill="#FBBC05"/>
  <path d="M10 3.636c1.791 0 3.395.614 4.659 1.818L18.05 2.05C16.036.364 13.282-.727 10-.727 6.3-.727 3.1 1.545 1.127 4.395L3.191 5.909C4.15 3.035 6.832.909 10 .909z" fill="#EA4335"/>
</svg>
